<?xml version="1.0" encoding="utf-8"?>
<!-- Generator: Adobe Illustrator 21.1.0, SVG Export Plug-In . SVG Version: 6.00 Build 0)  -->
<svg version="1.1" id="Layer_1" xmlns="http://www.w3.org/2000/svg" xmlns:xlink="http://www.w3.org/1999/xlink" x="0px" y="0px"
	 viewBox="0 0 38 44" style="enable-background:new 0 0 38 44;" xml:space="preserve">
<style type="text/css">
	.st0{fill:#3C4937;}
	.st1{fill:#7B8E75;}
</style>
<g>
	<path class="st0" d="M37.3,21c-0.5-0.3-1.2-0.1-1.4,0.4L19,39.2L2.1,21.4c-0.3-0.5-0.9-0.6-1.4-0.4c-0.5,0.3-0.7,0.9-0.4,1.2L18,41
		c0.2,0.3,0.6,0.5,1,0.5s0.8-0.2,1-0.5l17.7-18.7C38,21.8,37.8,21.3,37.3,21z"/>
	<path class="st1" d="M18,20.2c0.2,0.3,0.6,0.5,1,0.5s0.8-0.2,1-0.5L37.7,1.5c0.3-0.5,0.1-1-0.4-1.2c-0.5-0.3-1.2-0.1-1.4,0.4
		L19,18.4L2.1,0.6C1.8,0.1,1.2,0,0.7,0.2C0.2,0.5,0,1,0.3,1.5L18,20.2z"/>
</g>
</svg>
